<svg width="200" height="200" viewBox="0 0 200 200" fill="none" xmlns="http://www.w3.org/2000/svg">
<rect width="200" height="200" fill="black"/>
<path d="M79.9361 136.364C76.906 136.364 74.4496 133.907 74.4496 130.877V69.6364C74.4496 66.3226 77.1359 63.6364 80.4496 63.6364H100.373C106.031 63.6364 110.719 64.6662 114.435 66.7258C118.152 68.7855 120.934 71.6027 122.781 75.1775C124.627 78.7287 125.55 82.7296 125.55 87.1804C125.55 91.6548 124.615 95.6794 122.745 99.2543C120.898 102.805 118.105 105.623 114.364 107.706C110.648 109.766 105.972 110.795 100.337 110.795H87.1627C84.5934 110.795 82.5107 108.713 82.5107 106.143C82.5107 103.574 84.5934 101.491 87.1627 101.491H99.3431C102.918 101.491 105.818 100.876 108.043 99.6449C110.269 98.3901 111.902 96.6856 112.944 94.5312C113.986 92.3769 114.506 89.9266 114.506 87.1804C114.506 84.4342 113.986 81.9957 112.944 79.865C111.902 77.7344 110.257 76.0653 108.008 74.8579C105.782 73.6506 102.847 73.0469 99.201 73.0469H91.4226C88.1089 73.0469 85.4226 75.7332 85.4226 79.0469V130.877C85.4226 133.907 82.9662 136.364 79.9361 136.364Z" fill="#C0E952"/>
</svg>
